HIERARCHY
ROOT Hips
{
	OFFSET 0.00000 0.00000 0.00000
	CHANNELS 6 Xposition Yposition Zposition Yrotation Zrotation Xrotation 
	JOINT Lumbar
	{
		OFFSET 0 0 0
		CHANNELS 3 Zrotation Xrotation Yrotation
		JOINT Neck
		{
			OFFSET 0.00 0.2701 0.00
			CHANNELS 3 Zrotation Xrotation Yrotation
			End Site
			{
				OFFSET 0.00 0.1379 0.00
			}
		}
		JOINT RightShoulder
		{
			OFFSET 0.0119 0.2289 0.1181
			CHANNELS 3 Zrotation Xrotation Yrotation
			JOINT RightElbow
			{
				OFFSET 0.00 -0.1475 0.00
				CHANNELS 2 Zrotation Yrotation
				JOINT RightWrist
				{
					OFFSET 0.00 -0.1605 0.00
					CHANNELS 2 Zrotation Xrotation
					End Site
					{
						OFFSET 0.0040 -0.1068 0.0006
					}
				}
			}
		}
		JOINT LeftShoulder
		{
			OFFSET 0.0119 0.2289 -0.1181
			CHANNELS 3 Zrotation Xrotation Yrotation
			JOINT LeftElbow
			{
				OFFSET 0.00 -0.1475 0.00
				CHANNELS 2 Zrotation Yrotation
				JOINT LeftWrist
				{
					OFFSET 0.00 -0.1605 0.00
					CHANNELS 2 Zrotation Xrotation
					End Site
					{
						OFFSET 0.0040 -0.1068 -0.0006
					}
				}
			}
		}
	}
	JOINT RightHip
	{
		OFFSET 0.0316 -0.0424 0.0458
		CHANNELS 3 Zrotation Xrotation Yrotation
		JOINT RightKnee
		{
			OFFSET 0.00 -0.2438 0.00
			CHANNELS 1 Zrotation
			JOINT RightAnkle
			{
				OFFSET 0.00 -0.2449 0.00
				CHANNELS 3 Zrotation Xrotation Yrotation
				End Site
				{
					OFFSET 0.1237 -0.0542 0.0051
				}
			}
		}
	}
	JOINT LeftHip
	{
		OFFSET 0.0316 -0.0424 -0.0458
		CHANNELS 3 Zrotation Xrotation Yrotation
		JOINT LeftKnee
		{
			OFFSET 0.00 -0.2438 0.00
			CHANNELS 1 Zrotation
			JOINT LeftAnkle
			{
				OFFSET 0.00 -0.2449 0.00
				CHANNELS 3 Zrotation Xrotation Yrotation
				End Site
				{
					OFFSET 0.1237 -0.0542 -0.0051
				}
			}
		}
	}
}
MOTION
Frames: 24
Frame Time: 0.02
0.0834 -0.30922 0.25429 167.52519 -42.28689 -14.37559 31.70904 4.92532 -8.69965 -4.51703 9.82054 -0.83079 -24.56776 -9.61667 -17.88991 59.2355 81.87849 -6.70379 -4.1476 -3.34302 30.31266 -16.69038 107.17224 -77.14156 -11.1562 1.70894 95.61493 -20.54191 29.92587 -124.9924 -5.31185 -2.24576 -1.72532 64.01728 15.01929 -3.72128 -125.13355 -21.90405 0.56662 1.4124
0.08791 -0.31238 0.24848 168.4655 -42.31946 -13.34355 31.13986 4.81846 -8.54685 -3.78496 9.59166 -0.83079 -23.44396 -10.44298 -18.11548 57.41292 81.67105 -6.6302 -3.93456 -0.91063 29.93331 -17.89032 106.75932 -76.9981 -11.35123 1.73556 96.79206 -20.42373 31.1269 -126.07443 -5.33456 -2.18286 -1.69275 64.86688 15.28276 -4.74029 -126.15056 -21.91043 0.50415 1.37306
0.09259 -0.31589 0.24225 169.3563 -42.41498 -12.2891 30.59119 4.71336 -8.31873 -2.95178 9.36432 -0.83079 -22.25057 -11.35963 -18.16902 55.68218 81.50234 -6.50521 -3.74912 1.41501 29.2971 -18.90309 106.41566 -76.77564 -11.56278 1.76332 97.99515 -20.26022 32.51001 -127.56861 -5.35018 -2.11381 -1.65717 65.85096 15.55818 -5.85469 -127.20672 -21.92567 0.43366 1.32904
0.09719 -0.31927 0.2362 170.26058 -42.48017 -11.25046 30.02591 4.61321 -8.12409 -2.16214 9.14001 -0.83079 -21.08124 -12.23084 -18.30878 53.91879 81.31581 -6.41574 -3.54392 3.75722 28.75972 -19.9845 106.04115 -76.59682 -11.76901 1.79126 99.20664 -20.11248 33.80422 -128.87809 -5.37291 -2.04927 -1.62373 66.76995 15.83334 -6.94514 -128.23988 -21.9338 0.36857 1.28806
0.10179 -0.32257 0.23017 171.21093 -42.55261 -10.18212 29.49062 4.48638 -7.93212 -1.37998 8.89949 -0.83079 -19.94064 -13.1252 -18.40905 52.11866 81.12311 -6.27171 -3.36213 6.24979 28.29212 -21.14046 105.66182 -76.38576 -11.96591 1.81576 100.32194 -19.9831 35.12632 -130.17657 -5.40172 -2.00394 -1.60011 67.70698 16.08616 -7.95652 -129.297 -21.95509 0.29678 1.24367
0.10644 -0.3261 0.22401 172.04975 -42.62488 -9.17151 28.89892 4.41663 -7.7173 -0.5601 8.69255 -0.83079 -18.7239 -13.99371 -18.54942 50.41725 80.95529 -6.22919 -3.14258 8.39444 27.62028 -22.0944 105.3104 -76.22356 -12.18557 1.8479 101.65119 -19.8071 36.4325 -131.59567 -5.38817 -1.88332 -1.53858 68.63591 16.38759 -9.15219 -130.31209 -21.95081 0.2363 1.20481
0.11124 -0.33011 0.21763 172.60162 -42.68128 -8.33914 28.13565 4.50206 -7.45252 0.34929 8.58631 -0.83079 -17.32572 -14.73645 -18.88296 48.95366 80.84543 -6.49419 -2.79076 9.64512 26.44895 -22.53946 105.01274 -76.20757 -12.4723 1.90044 103.52147 -19.49144 37.65279 -133.24718 -5.50749 -1.85951 -1.52341 69.53288 16.83234 -10.8568 -131.20903 -21.87646 0.21499 1.18589
0.11609 -0.33434 0.21113 173.04008 -42.7352 -7.56395 27.31707 4.64556 -7.16818 1.29075 8.51202 -0.83079 -15.85135 -15.45556 -19.25533 47.58805 80.76054 -6.86124 -2.40476 10.53913 25.0818 -22.7863 104.74281 -76.24469 -12.78028 1.96071 105.61258 -19.1331 38.84904 -135.00438 -5.54449 -1.71167 -1.44618 70.41207 17.3237 -12.73841 -132.06035 -21.77565 0.20429 1.17209
0.1209 -0.33848 0.20468 173.52387 -42.79042 -6.75517 26.53058 4.76415 -6.89643 2.21104 8.41832 -0.83079 -14.40531 -16.20482 -19.58647 46.18536 80.66598 -7.17229 -2.04899 11.5694 23.80368 -23.12121 104.46374 -76.26275 -13.07276 2.01783 107.63557 -18.8106 40.05563 -136.71494 -5.44828 -1.41167 -1.2938 71.28521 17.78595 -14.52448 -132.92795 -21.68516 0.18469 1.15358
0.12579 -0.34259 0.19823 174.03312 -42.84765 -5.97857 25.7146 4.87657 -6.607 3.16388 8.34699 -0.83079 -12.98499 -16.87309 -20.01631 44.75491 80.56539 -7.52115 -1.63177 12.70927 22.51504 -23.45847 104.1698 -76.25715 -13.38901 2.07367 109.53446 -18.42303 41.27526 -138.44 -6.04577 -1.95877 -1.56129 72.2258 18.28166 -16.38059 -133.8173 -21.60198 0.18167 1.14477
0.13051 -0.3468 0.19177 174.46199 -42.89861 -5.14759 24.94772 5.01553 -6.35001 4.05377 8.23453 -0.83079 -11.49183 -17.70617 -20.24539 43.40382 80.48304 -7.81738 -1.33441 13.53242 21.20679 -23.74583 103.91582 -76.31383 -13.66243 2.13372 111.72986 -18.15398 42.45437 -140.14706 -5.21204 -0.75352 -0.96008 73.01602 18.71911 -18.12793 -134.64802 -21.49741 0.14718 1.11727
0.13475 -0.35121 0.18531 174.70622 -42.93787 -4.16296 24.32062 5.21439 -6.19374 4.77301 8.01819 -0.83079 -9.83536 -18.9745 -19.96927 42.25228 80.44309 -7.93312 -1.37372 13.6108 19.87991 -23.947 103.73702 -76.53692 -13.79542 2.20647 114.81128 -18.2875 43.57171 -141.84115 -0.15977 5.61869 2.20257 73.42812 18.97962 -19.56181 -135.34388 -21.33841 0.0195 1.03474
0.1388 -0.3557 0.17886 174.87251 -42.96932 -3.11937 23.74654 5.43778 -6.06993 5.42462 7.75573 -0.83079 -8.10544 -20.41396 -19.48007 41.17629 80.42086 -7.99441 -1.53501 13.37502 18.5437 -24.10483 103.60237 -76.82084 -13.88687 2.283 118.16069 -18.53036 44.64003 -143.49983 6.27769 13.68474 6.20488 73.68274 19.18052 -20.87362 -135.9785 -21.15929 -0.13944 0.93367
0.14291 -0.36016 0.1724 175.06765 -43.00116 -2.09657 23.15414 5.64943 -5.92749 6.10025 7.50334 -0.83079 -6.39638 -21.7912 -19.05039 40.06194 80.39145 -8.08779 -1.64237 13.25605 17.22121 -24.28177 103.46586 -77.07122 -14.00939 2.35544 121.3078 -18.6803 45.70069 -145.13145 11.89141 20.73826 9.70518 73.98729 19.41201 -22.22146 -136.63136 -20.9903 -0.28166 0.84247
0.14714 -0.36459 0.16594 175.28403 -43.04767 -1.10288 22.53522 5.86572 -5.80081 6.80792 7.29945 -0.83079 -4.73565 -23.10138 -18.77801 38.96666 80.35897 -8.15427 -1.74309 13.23536 15.85163 -24.45538 103.2538 -77.34431 -14.08442 2.43675 124.80265 -19.00933 46.88655 -146.94873 18.32295 28.81466 13.7129 74.38258 19.6312 -23.65914 -137.32579 -20.81544 -0.43432 0.74519
0.15106 -0.36911 0.15949 175.44228 -43.06007 -0.03161 21.98513 6.07725 -5.6491 7.42924 6.98139 -0.83079 -2.96008 -24.59299 -18.12878 37.85006 80.33714 -8.2618 -1.88593 12.93854 14.58056 -24.62672 103.20884 -77.58887 -14.24418 2.50214 127.63383 -18.99425 47.80087 -148.37004 23.38535 35.1691 16.86626 74.55179 19.86016 -24.87653 -137.91637 -20.64937 -0.57256 0.65631
0.15424 -0.3739 0.15305 175.43299 -42.99504 1.22054 21.61006 6.27067 -5.42301 7.8554 6.37451 -0.83079 -0.86443 -26.536 -16.47419 36.63964 80.33776 -8.50204 -2.12563 11.97222 13.58601 -24.81647 103.61764 -77.69793 -14.68434 2.50763 128.56598 -17.98069 47.97165 -148.69992 24.27164 36.28367 17.42003 74.13527 20.13991 -25.53041 -138.26342 -20.50397 -0.66545 0.59346
0.15711 -0.37877 0.14661 175.37342 -42.89341 2.55229 21.3031 6.4579 -5.17084 8.19216 5.6515 -0.83079 1.34126 -28.65647 -14.45028 35.4071 80.34948 -8.78405 -2.40211 10.73911 12.69244 -25.00372 104.19231 -77.78445 -15.20553 2.49973 128.81985 -16.62058 47.87192 -148.63305 23.74201 35.61887 17.09097 73.49763 20.4296 -25.96347 -138.50286 -20.36978 -0.7424 0.54
0.1601 -0.38358 0.14018 175.35447 -42.79849 3.86061 20.96653 6.64709 -4.92811 8.55172 4.97127 -0.83079 3.4808 -30.70186 -12.60686 34.19582 80.35689 -9.04215 -2.65463 9.61752 11.75101 -25.18402 104.68892 -77.90754 -15.66421 2.50775 129.38386 -15.43436 47.90001 -148.75179 23.89778 35.81494 17.189 72.96013 20.70843 -26.48647 -138.77347 -20.23623 -0.82536 0.4833
0.16319 -0.38852 0.13372 175.25736 -42.74425 5.11815 20.62601 6.84105 -4.69406 8.98286 4.33087 -0.83079 5.68579 -32.73288 -10.70429 32.94254 80.3592 -9.3183 -2.94044 8.51978 10.81363 -25.39722 105.19861 -77.91866 -16.22497 2.47438 129.95002 -14.18557 47.90615 -148.84752 23.9265 35.85174 17.20811 72.41489 21.01195 -27.0478 -139.11744 -20.07795 -0.91471 0.42157
0.16599 -0.39318 0.12733 175.31254 -42.59787 6.49832 20.30936 7.02291 -4.43862 9.24625 3.58154 -0.83079 7.78627 -34.82975 -8.83791 31.76719 80.37783 -9.56865 -3.16598 7.3207 9.89671 -25.5414 105.71959 -78.16058 -16.59907 2.52401 130.34632 -12.9798 47.89391 -148.89674 23.86357 35.7731 17.16975 71.83995 21.26724 -27.48029 -139.28303 -19.97385 -0.98645 0.37284
0.16807 -0.39713 0.12117 175.79853 -42.1957 8.20846 20.04034 7.1755 -4.10234 9.05423 2.55117 -0.83079 9.50872 -37.0971 -7.18822 30.8428 80.40895 -9.72767 -3.19902 5.84843 8.97194 -25.50167 106.2332 -79.00924 -16.38375 2.80504 130.44411 -12.00585 47.90139 -148.92014 23.90335 35.82318 17.19473 71.19905 21.38672 -27.59642 -138.98828 -20.01907 -1.014 0.35749
0.16988 -0.40079 0.11509 176.44076 -41.7039 10.03679 19.79297 7.31518 -3.75067 8.69978 1.41705 -0.83079 11.12992 -39.41667 -5.58922 29.99317 80.46053 -9.8615 -3.17259 4.2988 8.07218 -25.39275 106.75182 -80.09461 -15.98723 3.16964 130.39205 -11.08004 47.89913 -148.90953 23.89087 35.80747 17.18688 70.54434 21.45786 -27.59472 -138.51603 -20.11813 -1.02402 0.35508
0.17181 -0.40453 0.10898 177.01257 -41.26011 11.80381 19.53654 7.45935 -3.42421 8.42877 0.3363 -0.83079 12.84268 -41.69179 -3.94397 29.08695 80.52358 -10.01348 -3.18412 2.82105 7.18653 -25.31039 107.2666 -81.09853 -15.71048 3.4974 130.40437 -10.11477 47.89879 -148.91109 23.88939 35.80562 17.186 69.92102 21.5513 -27.656 -138.12264 -20.19097 -1.04168 0.34692
